<svg xmlns="http://www.w3.org/2000/svg" xmlns:xlink="http://www.w3.org/1999/xlink" width="24" height="24" viewBox="0 0 24 24">
    <defs>
        <path id="a" d="M23.649 11.154L12.846.35a1.195 1.195 0 0 0-1.692 0L.35 11.154a1.195 1.195 0 0 0 0 1.692L11.154 23.65a1.195 1.195 0 0 0 1.692 0L23.65 12.846c.468-.456.468-1.212 0-1.692zm-9.254 3.853v-3.001H9.593v3.6h-2.4v-4.8c0-.66.54-1.2 1.2-1.2h6.002V6.604l4.2 4.2-4.2 4.202z"/>
    </defs>
    <g fill="none" fill-rule="evenodd">
        <path d="M0 0h24v24H0z"/>
        <mask id="b" fill="#fff">
            <use xlink:href="#a"/>
        </mask>
        <use fill="#67c7c5" fill-rule="nonzero" xlink:href="#a"/>
    </g>
</svg>
