<svg xmlns="http://www.w3.org/2000/svg" xmlns:xlink="http://www.w3.org/1999/xlink" width="24" height="24" viewBox="0 0 24 24">
    <defs>
        <path id="a" d="M18.286 7.5V6c0-3.308-2.82-6-6.286-6-3.466 0-6.286 2.692-6.286 6v1.5H1v12.75C1 22.321 2.759 24 4.929 24H19.07C21.241 24 23 22.321 23 20.25V7.5h-4.714zM8.857 6c0-1.654 1.41-3 3.143-3 1.733 0 3.143 1.346 3.143 3v1.5H8.857V6zm7.857 5.625c-.65 0-1.178-.504-1.178-1.125s.527-1.125 1.178-1.125c.651 0 1.179.504 1.179 1.125s-.528 1.125-1.179 1.125zm-9.428 0c-.651 0-1.179-.504-1.179-1.125s.528-1.125 1.179-1.125c.65 0 1.178.504 1.178 1.125s-.527 1.125-1.178 1.125z"/>
    </defs>
    <g fill="none" fill-rule="evenodd">
        <path d="M0 0h24v24H0z"/>
        <mask id="b" fill="#fff">
            <use xlink:href="#a"/>
        </mask>
        <use fill="#67c7c5" fill-rule="nonzero" xlink:href="#a"/>
    </g>
</svg>
