<svg xmlns="http://www.w3.org/2000/svg" width="14" height="13.223" viewBox="0 0 14 13.223">
  <path id="star_1_" data-name="star (1)" d="M9.2,15.548a1.556,1.556,0,0,1,1.594,0l2.6,1.553a.815.815,0,0,0,1.22-.873l-.682-2.893a1.556,1.556,0,0,1,.5-1.538l2.282-1.955a.8.8,0,0,0-.467-1.415l-3.019-.253a1.556,1.556,0,0,1-1.3-.937L10.753,4.49a.823.823,0,0,0-1.506,0L8.071,7.231a1.556,1.556,0,0,1-1.3.936L3.751,8.42a.805.805,0,0,0-.467,1.415L5.567,11.79a1.556,1.556,0,0,1,.5,1.538l-.682,2.893a.814.814,0,0,0,1.219.873l2.6-1.546Z" transform="translate(-3.001 -3.999)" fill="#d31a21"/>
</svg>
